<?xml version="1.0" encoding="UTF-8"?><svg width="22px" height="22px" viewBox="0 0 22 22" version="1.1" xmlns="http://www.w3.org/2000/svg" xmlns:xlink="http://www.w3.org/1999/xlink">        <title>Shape Copy</title>    <desc>Created with Sketch.</desc>    <defs></defs>    <g id="Kitchen-sink" stroke="none" stroke-width="1" fill="none" fill-rule="evenodd">        <g id="Octicons" transform="translate(-370.000000, -1584.000000)" fill="#1B1F23">            <path d="M381,1584 C374.9225,1584 370,1588.9225 370,1595 C370,1599.8675 373.14875,1603.97875 377.52125,1605.43625 C378.07125,1605.5325 378.2775,1605.2025 378.2775,1604.91375 C378.2775,1604.6525 378.26375,1603.78625 378.26375,1602.865 C375.5,1603.37375 374.785,1602.19125 374.565,1601.5725 C374.44125,1601.25625 373.905,1600.28 373.4375,1600.01875 C373.0525,1599.8125 372.5025,1599.30375 373.42375,1599.29 C374.29,1599.27625 374.90875,1600.0875 375.115,1600.4175 C376.105,1602.08125 377.68625,1601.61375 378.31875,1601.325 C378.415,1600.61 378.70375,1600.12875 379.02,1599.85375 C376.5725,1599.57875 374.015,1598.63 374.015,1594.4225 C374.015,1593.22625 374.44125,1592.23625 375.1425,1591.46625 C375.0325,1591.19125 374.6475,1590.06375 375.2525,1588.55125 C375.2525,1588.55125 376.17375,1588.2625 378.2775,1589.67875 C379.1575,1589.43125 380.0925,1589.3075 381.0275,1589.3075 C381.9625,1589.3075 382.8975,1589.43125 383.7775,1589.67875 C385.88125,1588.24875 386.8025,1588.55125 386.8025,1588.55125 C387.4075,1590.06375 387.0225,1591.19125 386.9125,1591.46625 C387.61375,1592.23625 388.04,1593.2125 388.04,1594.4225 C388.04,1598.64375 385.46875,1599.57875 383.02125,1599.85375 C383.42,1600.1975 383.76375,1600.8575 383.76375,1601.88875 C383.76375,1603.36 383.75,1604.5425 383.75,1604.91375 C383.75,1605.2025 383.95625,1605.54625 384.50625,1605.43625 C388.85125,1603.97875 392,1599.85375 392,1595 C392,1588.9225 387.0775,1584 381,1584 L381,1584 Z" id="Shape-Copy"></path>        </g>    </g></svg>